<?xml version="1.0" encoding="UTF-8" standalone="no"?>
<!--Generator: Apple Native CoreSVG 341-->

<svg
   version="1.1"
   viewBox="0 0 1198.12 1318.12"
   id="svg10"
   sodipodi:docname="icloud.and.arrow.down.svg"
   inkscape:version="1.2.2 (b0a84865, 2022-12-01)"
   xmlns:inkscape="http://www.inkscape.org/namespaces/inkscape"
   xmlns:sodipodi="http://sodipodi.sourceforge.net/DTD/sodipodi-0.dtd"
   xmlns="http://www.w3.org/2000/svg"
   xmlns:svg="http://www.w3.org/2000/svg">
  <defs
     id="defs14" />
  <sodipodi:namedview
     id="namedview12"
     pagecolor="#ffffff"
     bordercolor="#111111"
     borderopacity="1"
     inkscape:showpageshadow="0"
     inkscape:pageopacity="0"
     inkscape:pagecheckerboard="1"
     inkscape:deskcolor="#d1d1d1"
     showgrid="false"
     inkscape:zoom="0.77913999"
     inkscape:cx="329.85087"
     inkscape:cy="659.06"
     inkscape:window-width="1387"
     inkscape:window-height="1205"
     inkscape:window-x="0"
     inkscape:window-y="30"
     inkscape:window-maximized="0"
     inkscape:current-layer="svg10" />
  <g
     id="g8">
    <path
       d="M1046.62 537.75C1141.88 573.375 1198.12 652.875 1198.12 748.125C1198.12 862.5 1113.38 949.5 969.375 949.5L716.625 949.5L716.625 883.125L969.375 883.125C1076.25 883.125 1131.75 826.125 1131.75 748.125C1131.75 664.875 1075.5 607.125 987.75 587.25C982.5 586.125 980.25 582.375 980.625 576.75C982.125 555 983.625 530.625 982.125 510C973.125 361.875 861 236.25 702.75 236.25C576.75 236.25 504 307.125 456.75 391.125C453.75 396.375 450.375 397.125 444.75 395.625C343.875 366 236.625 411 236.625 555.75C236.625 561.75 234 565.125 228 565.125C125.25 565.125 66.375 634.125 66.375 727.125C66.375 814.125 128.625 883.125 245.625 883.125L481.875 883.125L481.875 949.5L246 949.5C91.125 949.5 0 850.875 0 727.125C0 615 68.625 528 176.25 513.375C177.75 379.5 313.875 295.5 423.75 327C479.25 241.125 571.125 169.875 702.75 169.875C897 169.875 1049.25 324.75 1046.62 537.75Z"
       fill="white"
       fill-opacity="0.85"
       id="path4" />
    <path
       d="M434.625 1016.62C417.375 1016.62 404.625 1029 404.625 1045.88C404.625 1054.88 408.375 1061.25 414.375 1067.62L575.25 1224C583.5 1231.88 590.625 1234.88 599.25 1234.88C607.5 1234.88 614.625 1231.88 622.875 1224L783.375 1067.62C789.75 1061.25 793.125 1054.88 793.125 1045.88C793.125 1029 780 1016.62 763.125 1016.62C754.875 1016.62 746.25 1020 740.625 1026.75L658.875 1112.25L599.25 1175.62L538.875 1112.25L457.5 1026.75C451.5 1020 442.5 1016.62 434.625 1016.62ZM599.25 615.75C581.25 615.75 566.25 630.375 566.25 647.625L566.25 1072.12L571.125 1191.75C571.875 1207.12 583.875 1219.88 599.25 1219.88C614.25 1219.88 626.25 1207.12 627 1191.75L631.875 1072.12L631.875 647.625C631.875 630.375 616.875 615.75 599.25 615.75Z"
       fill="white"
       fill-opacity="0.85"
       id="path6" />
  </g>
</svg>
